<?xml version="1.0" encoding="UTF-8"?>
<svg id="Layer_2" data-name="Layer 2" xmlns="http://www.w3.org/2000/svg" xmlns:xlink="http://www.w3.org/1999/xlink" viewBox="0 0 998.23 919.64">
  <defs>
    <style>
      .cls-1 {
        fill: #fff;
      }

      .cls-2 {
        opacity: .2;
      }

      .cls-3 {
        clip-path: url(#clippath);
      }
    </style>
    <clipPath id="clippath">
      <path class="cls-1" d="m331.14,764.12c-28.18,20.17-50.77,42.83-67.13,67.35-19.04,28.49-28.68,58.17-28.68,88.17h46.06c0-90.65,135.7-170.22,217.72-170.22s217.71,79.57,217.71,170.22h46.07c0-30-9.66-59.68-28.67-88.17-16.38-24.52-38.97-47.18-67.15-67.35-52.36-37.47-116.72-60.76-167.96-60.76s-115.61,23.28-167.98,60.76m82.26-177.12c-35.37,16.96-70.29,40.55-100.99,68.25-36.66,33.09-65.9,70.54-86.87,111.3-24.73,48.04-37.29,99.55-37.29,153.09h46.07c0-46.13,10.83-90.55,32.17-132.01,18.41-35.79,44.25-68.83,76.79-98.18,61.67-55.65,128.26-80.69,155.83-80.69s94.15,25.04,155.82,80.69c32.54,29.35,58.38,62.39,76.79,98.18,21.34,41.46,32.18,85.88,32.18,132.01h46.06c0-53.53-12.55-105.05-37.28-153.09-20.98-40.76-50.22-78.21-86.88-111.3-30.7-27.69-65.62-51.29-100.99-68.25-32.73-15.67-63.16-24.31-85.7-24.31s-52.99,8.63-85.71,24.31m-1.12-132.98c-28.72,16.39-72.42,45.61-117.58,91.71-70.02,71.49-153.5,194.38-153.5,373.91h46.06c0-163.99,76.33-276.33,140.36-341.68,41.44-42.3,81.34-68.99,107.52-83.94,33.31-19.02,56.52-25.93,63.99-25.93s30.66,6.9,63.97,25.93c26.18,14.95,66.08,41.65,107.52,83.94,64.04,65.36,140.36,177.69,140.36,341.68h46.06c0-179.54-83.48-302.43-153.5-373.91-45.16-46.1-88.87-75.31-117.58-91.71-35.62-20.34-67.26-32.01-86.82-32.01s-51.22,11.66-86.84,32.01m-.72-133.12c-32.89,21.22-82.85,58.38-134.16,114.97-53.58,59.08-96.28,125.66-126.89,197.9-37.41,88.27-56.37,184.45-56.37,285.87h46.06c0-93.72,17.19-182.57,51.1-264.04,27.83-66.86,66.76-128.7,115.71-183.77,47.16-53.04,93.43-88.3,123.92-108.55,35.79-23.75,60.76-34.11,68.19-35.73,7.41,1.62,32.38,11.99,68.17,35.73,30.51,20.24,76.77,55.51,123.92,108.55,48.95,55.08,87.88,116.91,115.73,183.77,33.9,81.48,51.09,170.32,51.09,264.04h46.06c0-101.42-18.96-197.6-56.37-285.87-30.61-72.25-73.3-138.82-126.89-197.9-51.32-56.59-101.27-93.75-134.16-114.97-14.39-9.27-63.2-39.56-87.54-39.56s-73.17,30.29-87.56,39.56m52.86-166.91c-11.24,6.12-29.61,16.94-53.32,33.7-37.21,26.29-93.58,71.6-150.78,138.11-62.13,72.21-111.61,153.34-147.1,241.14-43.9,108.57-66.14,227.24-66.14,352.68h46.06c0-116.62,20.12-226.98,59.81-327.99,32.27-82.08,77.4-158.21,134.2-226.26,93.34-111.88,188.52-166.62,211.97-177.37,23.43,10.75,118.62,65.49,211.97,177.37,56.79,68.05,101.92,144.18,134.19,226.26,39.71,101.01,59.81,211.37,59.81,327.99h46.06c0-125.44-22.24-244.11-66.14-352.68-35.48-87.81-84.97-168.94-147.1-241.14-57.21-66.52-113.57-111.83-150.77-138.11-23.72-16.76-42.1-27.58-53.33-33.7-24.44-13.32-30.86-13.32-34.68-13.32s-10.25,0-34.7,13.32M488.28,2.72c-1.28.67-31.89,17.12-77.47,51.68-41.7,31.62-104.6,85.27-167.49,161.25-70.66,85.39-126.98,181.07-167.35,284.39C25.55,628.99,0,770.16,0,919.64h46.07c0-143.21,24.33-278.33,72.31-401.58,38.37-98.57,91.92-189.9,159.12-271.46,59.95-72.74,119.91-124.1,159.67-154.37,27.67-21.08,49.66-35.16,61.96-42.6,12.3,7.44,34.27,21.53,61.96,42.6,39.74,30.27,99.72,81.63,159.65,154.37,67.2,81.55,120.75,172.89,159.12,271.46,47.98,123.25,72.31,258.37,72.31,401.58h46.07c0-149.48-25.55-290.65-75.97-419.61-40.38-103.32-96.69-199-167.35-284.39-62.89-75.98-125.78-129.63-167.49-161.25C541.85,19.83,511.23,3.39,509.95,2.72c-3.38-1.81-7.1-2.72-10.83-2.72s-7.46.91-10.84,2.72"/>
    </clipPath>
  </defs>
  <g id="Calque_1" data-name="Calque 1">
    <g class="cls-2">
      <path class="cls-1" d="m331.14,764.12c-28.18,20.17-50.77,42.83-67.13,67.35-19.04,28.49-28.68,58.17-28.68,88.17h46.06c0-90.65,135.7-170.22,217.72-170.22s217.71,79.57,217.71,170.22h46.07c0-30-9.66-59.68-28.67-88.17-16.38-24.52-38.97-47.18-67.15-67.35-52.36-37.47-116.72-60.76-167.96-60.76s-115.61,23.28-167.98,60.76m82.26-177.12c-35.37,16.96-70.29,40.55-100.99,68.25-36.66,33.09-65.9,70.54-86.87,111.3-24.73,48.04-37.29,99.55-37.29,153.09h46.07c0-46.13,10.83-90.55,32.17-132.01,18.41-35.79,44.25-68.83,76.79-98.18,61.67-55.65,128.26-80.69,155.83-80.69s94.15,25.04,155.82,80.69c32.54,29.35,58.38,62.39,76.79,98.18,21.34,41.46,32.18,85.88,32.18,132.01h46.06c0-53.53-12.55-105.05-37.28-153.09-20.98-40.76-50.22-78.21-86.88-111.3-30.7-27.69-65.62-51.29-100.99-68.25-32.73-15.67-63.16-24.31-85.7-24.31s-52.99,8.63-85.71,24.31m-1.12-132.98c-28.72,16.39-72.42,45.61-117.58,91.71-70.02,71.49-153.5,194.38-153.5,373.91h46.06c0-163.99,76.33-276.33,140.36-341.68,41.44-42.3,81.34-68.99,107.52-83.94,33.31-19.02,56.52-25.93,63.99-25.93s30.66,6.9,63.97,25.93c26.18,14.95,66.08,41.65,107.52,83.94,64.04,65.36,140.36,177.69,140.36,341.68h46.06c0-179.54-83.48-302.43-153.5-373.91-45.16-46.1-88.87-75.31-117.58-91.71-35.62-20.34-67.26-32.01-86.82-32.01s-51.22,11.66-86.84,32.01m-.72-133.12c-32.89,21.22-82.85,58.38-134.16,114.97-53.58,59.08-96.28,125.66-126.89,197.9-37.41,88.27-56.37,184.45-56.37,285.87h46.06c0-93.72,17.19-182.57,51.1-264.04,27.83-66.86,66.76-128.7,115.71-183.77,47.16-53.04,93.43-88.3,123.92-108.55,35.79-23.75,60.76-34.11,68.19-35.73,7.41,1.62,32.38,11.99,68.17,35.73,30.51,20.24,76.77,55.51,123.92,108.55,48.95,55.08,87.88,116.91,115.73,183.77,33.9,81.48,51.09,170.32,51.09,264.04h46.06c0-101.42-18.96-197.6-56.37-285.87-30.61-72.25-73.3-138.82-126.89-197.9-51.32-56.59-101.27-93.75-134.16-114.97-14.39-9.27-63.2-39.56-87.54-39.56s-73.17,30.29-87.56,39.56m52.86-166.91c-11.24,6.12-29.61,16.94-53.32,33.7-37.21,26.29-93.58,71.6-150.78,138.11-62.13,72.21-111.61,153.34-147.1,241.14-43.9,108.57-66.14,227.24-66.14,352.68h46.06c0-116.62,20.12-226.98,59.81-327.99,32.27-82.08,77.4-158.21,134.2-226.26,93.34-111.88,188.52-166.62,211.97-177.37,23.43,10.75,118.62,65.49,211.97,177.37,56.79,68.05,101.92,144.18,134.19,226.26,39.71,101.01,59.81,211.37,59.81,327.99h46.06c0-125.44-22.24-244.11-66.14-352.68-35.48-87.81-84.97-168.94-147.1-241.14-57.21-66.52-113.57-111.83-150.77-138.11-23.72-16.76-42.1-27.58-53.33-33.7-24.44-13.32-30.86-13.32-34.68-13.32s-10.25,0-34.7,13.32M488.28,2.72c-1.28.67-31.89,17.12-77.47,51.68-41.7,31.62-104.6,85.27-167.49,161.25-70.66,85.39-126.98,181.07-167.35,284.39C25.55,628.99,0,770.16,0,919.64h46.07c0-143.21,24.33-278.33,72.31-401.58,38.37-98.57,91.92-189.9,159.12-271.46,59.95-72.74,119.91-124.1,159.67-154.37,27.67-21.08,49.66-35.16,61.96-42.6,12.3,7.44,34.27,21.53,61.96,42.6,39.74,30.27,99.72,81.63,159.65,154.37,67.2,81.55,120.75,172.89,159.12,271.46,47.98,123.25,72.31,258.37,72.31,401.58h46.07c0-149.48-25.55-290.65-75.97-419.61-40.38-103.32-96.69-199-167.35-284.39-62.89-75.98-125.78-129.63-167.49-161.25C541.85,19.83,511.23,3.39,509.95,2.72c-3.38-1.81-7.1-2.72-10.83-2.72s-7.46.91-10.84,2.72"/>
      <g class="cls-3">
        <rect class="cls-1" width="998.23" height="919.64"/>
      </g>
    </g>
  </g>
</svg>