<?xml version="1.0" encoding="UTF-8"?>
<svg id="Layer_2" data-name="Layer 2" xmlns="http://www.w3.org/2000/svg" xmlns:xlink="http://www.w3.org/1999/xlink" viewBox="0 0 135.81 134.71">
  <defs>
    <style>
      .cls-1 {
        fill: #091f3e;
      }

      .cls-2 {
        clip-path: url(#clippath);
      }

      .cls-3 {
        fill: #18223e;
      }

      .cls-4 {
        fill: #9cd5bf;
      }
    </style>
    <clipPath id="clippath">
      <path class="cls-4" d="m54.42,61.33c-2.26,1.62-4.08,3.44-5.39,5.41-1.53,2.29-2.3,4.67-2.3,7.08h3.7c0-7.28,10.89-13.66,17.48-13.66s17.47,6.39,17.47,13.66h3.7c0-2.41-.78-4.79-2.3-7.08-1.32-1.97-3.13-3.79-5.39-5.41-4.2-3.01-9.37-4.88-13.48-4.88s-9.28,1.87-13.48,4.88m6.6-14.22c-2.84,1.36-5.64,3.26-8.11,5.48-2.94,2.66-5.29,5.66-6.97,8.93-1.98,3.86-2.99,7.99-2.99,12.29h3.7c0-3.7.87-7.27,2.58-10.6,1.48-2.87,3.55-5.52,6.16-7.88,4.95-4.47,10.3-6.48,12.51-6.48s7.56,2.01,12.51,6.48c2.61,2.36,4.69,5.01,6.16,7.88,1.71,3.33,2.58,6.89,2.58,10.6h3.7c0-4.3-1.01-8.43-2.99-12.29-1.68-3.27-4.03-6.28-6.97-8.93-2.46-2.22-5.27-4.12-8.11-5.48-2.63-1.26-5.07-1.95-6.88-1.95s-4.25.69-6.88,1.95m-.09-10.67c-2.3,1.32-5.81,3.66-9.44,7.36-5.62,5.74-12.32,15.6-12.32,30.01h3.7c0-13.16,6.13-22.18,11.27-27.43,3.33-3.4,6.53-5.54,8.63-6.74,2.67-1.53,4.54-2.08,5.14-2.08s2.46.55,5.13,2.08c2.1,1.2,5.3,3.34,8.63,6.74,5.14,5.25,11.27,14.26,11.27,27.43h3.7c0-14.41-6.7-24.27-12.32-30.01-3.62-3.7-7.13-6.05-9.44-7.36-2.86-1.63-5.4-2.57-6.97-2.57s-4.11.94-6.97,2.57m-.06-10.68c-2.64,1.7-6.65,4.69-10.77,9.23-4.3,4.74-7.73,10.09-10.18,15.88-3,7.09-4.52,14.81-4.52,22.95h3.7c0-7.52,1.38-14.65,4.1-21.19,2.23-5.37,5.36-10.33,9.29-14.75,3.79-4.26,7.5-7.09,9.95-8.71,2.87-1.91,4.88-2.74,5.47-2.87.59.13,2.6.96,5.47,2.87,2.45,1.62,6.16,4.46,9.95,8.71,3.93,4.42,7.05,9.38,9.29,14.75,2.72,6.54,4.1,13.67,4.1,21.19h3.7c0-8.14-1.52-15.86-4.53-22.95-2.46-5.8-5.88-11.14-10.18-15.88-4.12-4.54-8.13-7.53-10.77-9.23-1.16-.74-5.07-3.18-7.03-3.18s-5.87,2.43-7.03,3.18m4.24-13.4c-.9.49-2.38,1.36-4.28,2.7-2.99,2.11-7.51,5.75-12.1,11.09-4.99,5.8-8.96,12.31-11.81,19.36-3.52,8.71-5.31,18.24-5.31,28.31h3.7c0-9.36,1.61-18.22,4.8-26.33,2.59-6.59,6.21-12.7,10.77-18.16,7.49-8.98,15.13-13.37,17.01-14.24,1.88.86,9.52,5.26,17.01,14.24,4.56,5.46,8.18,11.57,10.77,18.16,3.19,8.11,4.8,16.97,4.8,26.33h3.7c0-10.07-1.78-19.59-5.31-28.31-2.85-7.05-6.82-13.56-11.81-19.36-4.59-5.34-9.12-8.98-12.1-11.09-1.9-1.35-3.38-2.21-4.28-2.7-1.96-1.07-2.48-1.07-2.78-1.07s-.82,0-2.79,1.07m1.91-12.14c-.1.05-2.56,1.37-6.22,4.15-3.35,2.54-8.4,6.84-13.44,12.94-5.67,6.85-10.19,14.53-13.43,22.83-4.05,10.35-6.1,21.68-6.1,33.68h3.7c0-11.49,1.95-22.34,5.8-32.23,3.08-7.91,7.38-15.24,12.77-21.79,4.81-5.84,9.62-9.96,12.82-12.39,2.22-1.69,3.99-2.82,4.97-3.42.99.6,2.75,1.73,4.97,3.42,3.19,2.43,8,6.55,12.82,12.39,5.39,6.55,9.69,13.88,12.77,21.79,3.85,9.89,5.8,20.74,5.8,32.23h3.7c0-12-2.05-23.33-6.1-33.68-3.24-8.29-7.76-15.97-13.43-22.83-5.05-6.1-10.1-10.4-13.44-12.94-3.66-2.77-6.11-4.09-6.22-4.15-.27-.15-.57-.22-.87-.22s-.6.07-.87.22"/>
    </clipPath>
  </defs>
  <g id="Calque_1" data-name="Calque 1">
    <g>
      <path class="cls-3" d="m29.09,116.63v4.08h-4.64c-1.17,0-1.82-.61-1.82-1.66,0-.73.32-1.23.89-1.65l.29.24c-.54.39-.81.81-.81,1.4,0,.81.51,1.28,1.47,1.28h4.24v-3.7h.38Zm-3.82-.99c0-.19.14-.32.31-.32.17,0,.32.14.32.32,0,.17-.14.32-.32.32-.16,0-.31-.15-.31-.32Zm.86,0c0-.19.14-.32.31-.32.17,0,.32.14.32.32,0,.17-.14.32-.32.32-.16,0-.31-.15-.31-.32Zm5.87,4.88c0,.12-.02.19-.18.19h-1.23v-6.53h.37v6.15h.86c.16,0,.18.07.18.19Zm2.97,0c0,.12-.02.19-.18.19h-.18c-.56,0-.99-.14-1.3-.42-.25.29-.67.42-1.28.42h-.22c-.16,0-.18-.07-.18-.19s.02-.19.18-.19h.2c.88,0,1.22-.29,1.22-1.04v-2.66h.37v2.66c0,.27-.04.5-.11.69.25.23.6.34,1.05.34h.24c.16,0,.18.07.18.19Zm-.86-4.56h-1.4v-.3h.19c-.08-.11-.13-.23-.13-.37,0-.37.31-.62.74-.62.19,0,.41.05.54.12l-.14.25c-.08-.05-.26-.08-.4-.08-.3,0-.48.15-.48.35,0,.17.14.32.34.35h.72v.3Zm3.83,4.56c0,.12-.02.19-.18.19h-.18c-.56,0-.99-.14-1.3-.42-.25.29-.67.42-1.28.42h-.22c-.16,0-.18-.07-.18-.19s.02-.19.18-.19h.2c.88,0,1.22-.29,1.22-1.04v-2.66h.37v2.66c0,.27-.04.5-.11.69.25.23.6.34,1.05.34h.24c.16,0,.18.07.18.19Zm-1.67,1.22c0,.17-.14.32-.32.32-.16,0-.31-.15-.31-.32,0-.19.14-.32.31-.32.17,0,.32.14.32.32Zm.86,0c0,.17-.14.32-.32.32-.16,0-.31-.15-.31-.32,0-.19.14-.32.31-.32.17,0,.32.14.32.32Zm6.19-1.22c0,.12-.02.19-.18.19h-.08c-.86,0-1.09.74-1.11,1.88l-.69.42c-.99,0-2.06-.84-2.53-2.3h-.98c-.16,0-.18-.07-.18-.19s.02-.19.18-.19h.87c-.09-.39-.14-.82-.14-1.28,0-1.92.87-2.88,1.73-2.88s1.72.96,1.72,2.88c0,.62-.09,1.17-.25,1.66h-.06s0,0,0,0h-2.48c.4,1.11,1.18,1.88,2.04,1.94l.41-.26c.02-1.08.34-2.05,1.48-2.05h.08c.16,0,.18.07.18.19Zm-4.31-.19h2.39c.11-.41.15-.83.15-1.27,0-1.47-.6-2.51-1.35-2.51s-1.36,1.04-1.36,2.5c0,.45.05.88.16,1.28Zm5.31-6.15v6.53h-1.18c-.16,0-.18-.07-.18-.19s.02-.19.18-.19h.81v-6.15h.37Zm1.6,0h.37v6.53h-.37v-6.53Zm7.51,2.41v4.28c0,1.17-.58,1.82-1.58,1.82l-.06-.38c.85,0,1.28-.47,1.28-1.44v-.4c-.39.14-.83.23-1.27.23-1.34,0-2.39-1-2.39-2.27s1.04-2.27,2.39-2.27c.5,0,1.05.14,1.6.41h.04Zm-.37,3.48v-3.22c-.38-.15-.81-.3-1.26-.3-1.19,0-2.03.86-2.03,1.89s.85,1.89,2.03,1.89c.45,0,.89-.12,1.26-.26Zm3.91.32c0,.18-.14.32-.31.32-.16,0-.31-.14-.31-.32,0-.1.04-.18.09-.29l.41-1.02h.25l-.34,1.01c.13.05.2.16.2.3Zm7.06.14c0,.12-.02.19-.18.19h-.39c-.65,0-.98-.15-1.21-.45-.75.29-1.64.45-2.58.45-.63,0-1.2-.07-1.72-.19v-.38c.54.13,1.12.19,1.72.19.86,0,1.68-.13,2.39-.4-.08-.17-.15-.38-.23-.6l-1.18-3.48.34-.12,1.19,3.48c.31.9.4,1.12,1.27,1.12h.39c.16,0,.18.07.18.19Zm4.61-.19l-.05.38h-4.74c-.16,0-.18-.07-.18-.19s.02-.19.18-.19h4.19v-1.72c0-1.23-.8-2.02-2.03-2.02-.6,0-1.1.18-1.55.53l-.17-.33c.51-.39,1.08-.58,1.72-.58,1.43,0,2.39.96,2.39,2.39v1.72h.23Zm-2.31,1.43c0,.18-.14.33-.32.33s-.32-.15-.32-.33c0-.19.14-.33.32-.33s.32.14.32.33Zm4.99-1.24c0,.12-.02.19-.18.19h-1.23v-6.53h.37v6.15h.86c.16,0,.18.07.18.19Zm7.84,0c0,.12-.02.19-.18.19h-.17c-.56,0-.99-.14-1.3-.41-.24.28-.64.41-1.21.41s-.95-.14-1.23-.41c-.24.28-.64.41-1.21.41s-.95-.14-1.23-.41c-.25.28-.67.41-1.28.41h-.22c-.16,0-.18-.07-.18-.19s.02-.19.18-.19h.2c.88,0,1.22-.29,1.22-1.04v-1.7h.37v1.7c0,.28-.04.51-.12.7.23.23.54.33,1.04.33.81,0,1.15-.28,1.15-1.04v-2.15h.37v2.15c0,.28-.04.51-.12.7.23.23.54.33,1.04.33.81,0,1.15-.28,1.15-1.04v-2.6h.37v2.6c0,.28-.04.5-.12.7.24.22.6.33,1.06.33h.23c.16,0,.18.07.18.19Zm7.29,0c0,.12-.02.19-.18.19h-.17c-.6,0-1.07-.17-1.39-.49-.82.33-1.76.49-2.42.49-.55,0-1.21-.11-1.95-.51-.28.33-.69.51-1.22.51h-.14c-.16,0-.18-.07-.18-.19s.02-.19.18-.19h.14c.67,0,1.08-.35,1.17-.96.08-.52.17-3.15,1.85-3.15,1.22,0,2.66,1.43,2.75,3.68.25.28.63.43,1.14.43h.23c.16,0,.18.07.18.19Zm-4.15-.19c.68,0,1.52-.17,2.21-.44-.08-1.78-1.19-3.3-2.37-3.3-1.33,0-1.4,2.28-1.49,2.84-.03.16-.07.32-.14.45.59.31,1.16.45,1.77.45Zm5.15-6.15v6.53h-1.18c-.16,0-.18-.07-.18-.19s.02-.19.18-.19h.81v-6.15h.37Zm1.6,0h.37v6.53h-.37v-6.53Zm12.5,6.34c0,.12-.02.19-.18.19h-7.02c-1.17,0-1.82-.61-1.82-1.66,0-.73.32-1.23.89-1.65l.29.24c-.54.39-.81.81-.81,1.4,0,.81.51,1.29,1.47,1.29h2.83c-.55-.42-.88-1.04-.88-1.79,0-1.37,1.12-2.38,2.5-2.38.59,0,1.19.19,1.67.4v3.76h.89c.16,0,.18.07.18.19Zm-3.59-.19h2.14v-3.51c-.42-.16-.86-.27-1.3-.27-1.25,0-2.12.9-2.12,2.01,0,.85.52,1.49,1.28,1.77Zm.54-5.22c0-.19.14-.33.32-.33s.32.14.32.33-.14.33-.32.33-.32-.15-.32-.33Zm4.05-.93v6.53h-1.18c-.16,0-.18-.07-.18-.19s.02-.19.18-.19h.81v-6.15h.37Zm3.02,6.34c0,.12-.02.19-.18.19h-1.23v-6.53h.37v6.15h.86c.16,0,.18.07.18.19Zm5.8,0c0,.12-.02.19-.18.19h-5.8c-.16,0-.18-.07-.18-.19s.02-.19.18-.19h4.19v-1.72c0-1.23-.8-2.02-2.03-2.02-.6,0-1.1.18-1.55.53l-.17-.33c.51-.39,1.08-.58,1.72-.58,1.43,0,2.39.96,2.39,2.39v1.72h1.24c.16,0,.18.07.18.19Zm1-3.89h.37v4.08h-1.55c-.16,0-.18-.07-.18-.19s.02-.19.18-.19h1.18v-3.7Zm-.54-.99c0-.19.14-.32.31-.32.17,0,.32.14.32.32,0,.17-.14.32-.32.32-.16,0-.31-.15-.31-.32Zm1.49,0c0,.17-.14.32-.32.32-.16,0-.31-.15-.31-.32,0-.19.14-.32.31-.32.17,0,.32.14.32.32Z"/>
      <path class="cls-3" d="m16.98,131.31c0,.12-.02.19-.18.19h-1.23v-6.53h.37v6.15h.86c.16,0,.18.07.18.19Zm1.37.19h-1.55c-.16,0-.18-.07-.18-.19s.02-.19.18-.19h1.18v-3.7h.37v4.08Zm.12,1.05c0,.18-.14.33-.32.33s-.32-.15-.32-.33c0-.19.14-.33.32-.33s.32.14.32.33Zm4.97-5.17v4.28c0,1.17-.58,1.82-1.58,1.82l-.06-.38c.85,0,1.28-.47,1.28-1.44v-.4c-.39.14-.83.23-1.27.23-1.34,0-2.39-1-2.39-2.27s1.04-2.27,2.39-2.27c.5,0,1.05.14,1.6.41h.04Zm-.37,3.48v-3.22c-.38-.15-.81-.3-1.26-.3-1.19,0-2.03.86-2.03,1.89s.85,1.89,2.03,1.89c.45,0,.89-.12,1.26-.26Zm.72,2.24c.85,0,1.28-.47,1.28-1.44v-4.24h.37v4.24c0,1.17-.58,1.82-1.58,1.82l-.06-.38Zm6.64-5.72v4.28c0,1.17-.58,1.82-1.58,1.82l-.06-.38c.85,0,1.28-.47,1.28-1.44v-.4c-.39.14-.83.23-1.27.23-1.34,0-2.39-1-2.39-2.27s1.04-2.27,2.39-2.27c.5,0,1.05.14,1.6.41h.04Zm-.37,3.48v-3.22c-.38-.15-.81-.3-1.26-.3-1.19,0-2.03.86-2.03,1.89s.85,1.89,2.03,1.89c.45,0,.89-.12,1.26-.26Zm2.67-6.56v.3h-1.4v-.3h.19c-.08-.11-.13-.23-.13-.37,0-.37.31-.62.74-.62.19,0,.41.05.54.12l-.14.25c-.08-.05-.26-.08-.4-.08-.3,0-.48.15-.48.35,0,.17.14.32.34.35h.72Zm-.88.68h.37v6.53h-.37v-6.53Zm13.2,2.39v4.14h-3.2c.03.11.04.23.04.35,0,1.07-.84,1.65-3.15,1.65-2.1,0-3.39-.48-3.39-2.05,0-.31.04-.83.15-1.27l.36.09c-.09.35-.14.84-.14,1.17,0,1.2.86,1.68,3.02,1.68,1.99,0,2.75-.38,2.75-1.25,0-.14-.02-.26-.05-.37h-.07c-.64,0-1.12-.16-1.43-.47l.26-.28c.25.24.63.37,1.17.37h.41c-.55-.42-.88-1.04-.88-1.78,0-1.37,1.12-2.38,2.5-2.38.6,0,1.2.19,1.67.4Zm-6.46,7.02c0,.17-.14.32-.32.32-.16,0-.31-.15-.31-.32,0-.19.14-.32.31-.32.17,0,.32.14.32.32Zm.86,0c0,.17-.14.32-.32.32-.16,0-.31-.15-.31-.32,0-.19.14-.32.31-.32.17,0,.32.14.32.32Zm3.09-3.26h2.14v-3.51c-.42-.16-.86-.27-1.3-.27-1.25,0-2.12.9-2.12,2.01,0,.84.52,1.49,1.28,1.77Zm.54-5.21c0-.19.14-.33.32-.33s.32.14.32.33-.14.33-.32.33-.32-.15-.32-.33Zm9.76,5.4c0,.12-.02.19-.18.19h-.09c-.72,0-1.08-.18-1.24-.59-.45.2-.94.32-1.37.32-1.25,0-2.24-.93-2.24-2.13s.99-2.13,2.25-2.13c.39,0,.83.09,1.24.27v-.27h.38v3.12c0,.75.12,1.04,1,1.04h.07c.16,0,.18.07.18.19Zm-1.6-.77c-.02-.14-.03-.29-.03-.46v-2.45c-.41-.19-.85-.3-1.24-.3-1.06,0-1.88.77-1.88,1.76s.82,1.76,1.87,1.76c.4,0,.82-.11,1.28-.31Zm-1.99-4.54c0-.19.14-.32.31-.32.17,0,.32.14.32.32,0,.17-.14.32-.32.32-.16,0-.31-.15-.31-.32Zm.86,0c0-.19.14-.32.31-.32.17,0,.32.14.32.32,0,.17-.14.32-.32.32-.16,0-.31-.15-.31-.32Zm5.7,5.3c0,.12-.02.19-.18.19h-.18c-.56,0-.99-.14-1.3-.42-.25.29-.67.42-1.28.42h-.22c-.16,0-.18-.07-.18-.19s.02-.19.18-.19h.2c.88,0,1.22-.29,1.22-1.04v-2.66h.37v2.66c0,.27-.04.5-.11.69.25.23.6.34,1.05.34h.24c.16,0,.18.07.18.19Zm-1.67,1.22c0,.17-.14.32-.32.32-.16,0-.31-.15-.31-.32,0-.19.14-.32.31-.32.17,0,.32.14.32.32Zm.86,0c0,.17-.14.32-.32.32-.16,0-.31-.15-.31-.32,0-.19.14-.32.31-.32.17,0,.32.14.32.32Zm6.54-1.6c-.86.39-1.89.57-2.6.57-.55,0-1.21-.11-1.95-.51-.28.33-.69.51-1.22.51h-.14c-.16,0-.18-.07-.18-.19s.02-.19.18-.19h.14c.67,0,1.08-.35,1.17-.96.08-.52.17-3.15,1.85-3.15,1.27,0,2.76,1.54,2.75,3.93Zm-2.59.19c.68,0,1.52-.17,2.21-.44-.08-1.78-1.19-3.3-2.37-3.3-1.33,0-1.4,2.28-1.49,2.84-.03.16-.07.32-.14.45.59.31,1.16.45,1.77.45Zm8.87.19c0,.12-.02.19-.18.19h-.17c-.57,0-1-.14-1.31-.42-.24.29-.67.42-1.28.42h-2.52v-.38h1.29v-4.88h.37v4.88h.85c.88,0,1.22-.29,1.22-1.04v-5.11h.37v5.11c0,.27-.04.5-.11.69.25.23.6.34,1.06.34h.23c.16,0,.18.07.18.19Zm6.48-3.83v2.6c0,.98-.47,1.41-1.49,1.41-.57,0-.95-.14-1.23-.41-.24.28-.64.41-1.21.41s-.95-.14-1.23-.41c-.25.28-.67.41-1.28.41h-.22c-.16,0-.18-.07-.18-.19s.02-.19.18-.19h.2c.88,0,1.22-.29,1.22-1.04v-1.7h.37v1.7c0,.28-.04.51-.12.7.23.23.54.33,1.04.33.81,0,1.15-.28,1.15-1.04v-2.15h.37v2.15c0,.28-.04.51-.12.7.23.23.54.33,1.04.33.81,0,1.15-.28,1.15-1.04v-2.6h.37Zm5.06-2.51v6.53h-4.09v-.38h1.29v-4.88h.37v4.88h2.06v-6.15h.37Zm-2.65,7.97h.72v.3h-1.4v-.3h.19c-.08-.11-.13-.23-.13-.37,0-.37.31-.62.74-.62.19,0,.41.05.54.12l-.14.25c-.08-.05-.26-.08-.4-.08-.3,0-.48.15-.48.35,0,.17.14.32.34.35Zm4.16-7.97h.37v6.53h-.37v-6.53Zm10.03,2.45v4.08h-4.64c-1.17,0-1.82-.61-1.82-1.66,0-.73.32-1.23.89-1.65l.29.24c-.54.39-.81.81-.81,1.4,0,.81.51,1.28,1.47,1.28h4.24v-3.7h.38Zm-3.82-.99c0-.19.14-.32.31-.32.17,0,.32.14.32.32,0,.17-.14.32-.32.32-.16,0-.31-.15-.31-.32Zm.86,0c0-.19.14-.32.31-.32.17,0,.32.14.32.32,0,.17-.14.32-.32.32-.16,0-.31-.15-.31-.32Zm4.45-1.46h.37v6.53h-.37v-6.53Zm6,6.01c-.77.32-1.72.51-2.74.51-.63,0-1.2-.07-1.72-.19v-.38c.54.13,1.12.19,1.72.19.85,0,1.66-.13,2.36-.39-.08-1.88-1.09-3.39-2.9-3.74l.08-.37c1.96.39,3.2,2.07,3.2,4.36Zm2.74.32c0,.12-.02.19-.18.19h-1.23v-6.53h.37v6.15h.86c.16,0,.18.07.18.19Zm2.97,0c0,.12-.02.19-.18.19h-.18c-.56,0-.99-.14-1.3-.42-.25.29-.67.42-1.28.42h-.22c-.16,0-.18-.07-.18-.19s.02-.19.18-.19h.2c.88,0,1.22-.29,1.22-1.04v-2.66h.37v2.66c0,.27-.04.5-.11.69.25.23.6.34,1.05.34h.24c.16,0,.18.07.18.19Zm-1.67,1.22c0,.17-.14.32-.32.32-.16,0-.31-.15-.31-.32,0-.19.14-.32.31-.32.17,0,.32.14.32.32Zm.86,0c0,.17-.14.32-.32.32-.16,0-.31-.15-.31-.32,0-.19.14-.32.31-.32.17,0,.32.14.32.32Zm6.85-1.22c0,.12-.02.19-.18.19h-6.05c-.16,0-.18-.07-.18-.19s.02-.19.18-.19h1.76c-.55-.42-.88-1.04-.88-1.78,0-1.37,1.12-2.38,2.5-2.38.59,0,1.19.19,1.67.4v3.76h1.01c.16,0,.18.07.18.19Zm-3.72-.19h2.16v-3.51c-.43-.16-.86-.27-1.31-.27-1.25,0-2.12.9-2.12,2.01,0,.85.52,1.49,1.27,1.77Zm.14-5.2c0-.19.14-.32.31-.32.17,0,.32.14.32.32,0,.17-.14.32-.32.32-.16,0-.31-.15-.31-.32Zm.86,0c0-.19.14-.32.31-.32.17,0,.32.14.32.32,0,.17-.14.32-.32.32-.16,0-.31-.15-.31-.32Zm3.72-.95v6.53h-1.18c-.16,0-.18-.07-.18-.19s.02-.19.18-.19h.81v-6.15h.37Zm1.6,0h.37v6.53h-.37v-6.53Zm7.51,2.41v4.28c0,1.17-.58,1.82-1.58,1.82l-.06-.38c.85,0,1.28-.47,1.28-1.44v-.4c-.39.14-.83.23-1.27.23-1.34,0-2.39-1-2.39-2.27s1.04-2.27,2.39-2.27c.5,0,1.05.14,1.6.41h.04Zm-.37,3.48v-3.22c-.38-.15-.81-.3-1.26-.3-1.19,0-2.03.86-2.03,1.89s.85,1.89,2.03,1.89c.45,0,.89-.12,1.26-.26Z"/>
      <path class="cls-1" d="m0,106.95l8.04-23.27h6.34l8.02,23.27h-5.27l-1.73-5.31H7l-1.73,5.31H0Zm11.12-17.96l-2.86,8.81h5.91l-2.86-8.81h-.18Z"/>
      <polygon class="cls-1" points="28.82 106.95 24.04 106.95 24.04 83.68 30.11 83.68 36.52 99.31 36.8 99.31 43.21 83.68 49.27 83.68 49.27 106.95 44.5 106.95 44.5 91.8 44.31 91.8 38.28 106.84 35.03 106.84 29.01 91.74 28.82 91.74 28.82 106.95"/>
      <polygon class="cls-1" points="56.94 106.95 52.17 106.95 52.17 83.68 58.24 83.68 64.65 99.31 64.92 99.31 71.33 83.68 77.4 83.68 77.4 106.95 72.62 106.95 72.62 91.8 72.43 91.8 66.41 106.84 63.16 106.84 57.13 91.74 56.94 91.74 56.94 106.95"/>
      <path class="cls-1" d="m79.03,106.95l8.04-23.27h6.34l8.02,23.27h-5.27l-1.73-5.31h-8.4l-1.73,5.31h-5.27Zm11.12-17.96l-2.86,8.81h5.91l-2.86-8.81h-.18Z"/>
      <polygon class="cls-1" points="103.07 106.95 103.07 82.26 107.99 85.1 107.99 102.89 117.97 102.89 117.97 106.95 103.07 106.95"/>
      <polygon class="cls-1" points="120.08 83.68 135.77 83.68 135.77 87.73 125 87.73 125 93.28 134.96 93.28 132.62 97.34 125 97.34 125 102.89 135.81 102.89 135.81 106.95 120.08 106.95 120.08 83.68"/>
      <g>
        <path class="cls-4" d="m54.42,61.33c-2.26,1.62-4.08,3.44-5.39,5.41-1.53,2.29-2.3,4.67-2.3,7.08h3.7c0-7.28,10.89-13.66,17.48-13.66s17.47,6.39,17.47,13.66h3.7c0-2.41-.78-4.79-2.3-7.08-1.32-1.97-3.13-3.79-5.39-5.41-4.2-3.01-9.37-4.88-13.48-4.88s-9.28,1.87-13.48,4.88m6.6-14.22c-2.84,1.36-5.64,3.26-8.11,5.48-2.94,2.66-5.29,5.66-6.97,8.93-1.98,3.86-2.99,7.99-2.99,12.29h3.7c0-3.7.87-7.27,2.58-10.6,1.48-2.87,3.55-5.52,6.16-7.88,4.95-4.47,10.3-6.48,12.51-6.48s7.56,2.01,12.51,6.48c2.61,2.36,4.69,5.01,6.16,7.88,1.71,3.33,2.58,6.89,2.58,10.6h3.7c0-4.3-1.01-8.43-2.99-12.29-1.68-3.27-4.03-6.28-6.97-8.93-2.46-2.22-5.27-4.12-8.11-5.48-2.63-1.26-5.07-1.95-6.88-1.95s-4.25.69-6.88,1.95m-.09-10.67c-2.3,1.32-5.81,3.66-9.44,7.36-5.62,5.74-12.32,15.6-12.32,30.01h3.7c0-13.16,6.13-22.18,11.27-27.43,3.33-3.4,6.53-5.54,8.63-6.74,2.67-1.53,4.54-2.08,5.14-2.08s2.46.55,5.13,2.08c2.1,1.2,5.3,3.34,8.63,6.74,5.14,5.25,11.27,14.26,11.27,27.43h3.7c0-14.41-6.7-24.27-12.32-30.01-3.62-3.7-7.13-6.05-9.44-7.36-2.86-1.63-5.4-2.57-6.97-2.57s-4.11.94-6.97,2.57m-.06-10.68c-2.64,1.7-6.65,4.69-10.77,9.23-4.3,4.74-7.73,10.09-10.18,15.88-3,7.09-4.52,14.81-4.52,22.95h3.7c0-7.52,1.38-14.65,4.1-21.19,2.23-5.37,5.36-10.33,9.29-14.75,3.79-4.26,7.5-7.09,9.95-8.71,2.87-1.91,4.88-2.74,5.47-2.87.59.13,2.6.96,5.47,2.87,2.45,1.62,6.16,4.46,9.95,8.71,3.93,4.42,7.05,9.38,9.29,14.75,2.72,6.54,4.1,13.67,4.1,21.19h3.7c0-8.14-1.52-15.86-4.53-22.95-2.46-5.8-5.88-11.14-10.18-15.88-4.12-4.54-8.13-7.53-10.77-9.23-1.16-.74-5.07-3.18-7.03-3.18s-5.87,2.43-7.03,3.18m4.24-13.4c-.9.49-2.38,1.36-4.28,2.7-2.99,2.11-7.51,5.75-12.1,11.09-4.99,5.8-8.96,12.31-11.81,19.36-3.52,8.71-5.31,18.24-5.31,28.31h3.7c0-9.36,1.61-18.22,4.8-26.33,2.59-6.59,6.21-12.7,10.77-18.16,7.49-8.98,15.13-13.37,17.01-14.24,1.88.86,9.52,5.26,17.01,14.24,4.56,5.46,8.18,11.57,10.77,18.16,3.19,8.11,4.8,16.97,4.8,26.33h3.7c0-10.07-1.78-19.59-5.31-28.31-2.85-7.05-6.82-13.56-11.81-19.36-4.59-5.34-9.12-8.98-12.1-11.09-1.9-1.35-3.38-2.21-4.28-2.7-1.96-1.07-2.48-1.07-2.78-1.07s-.82,0-2.79,1.07m1.91-12.14c-.1.05-2.56,1.37-6.22,4.15-3.35,2.54-8.4,6.84-13.44,12.94-5.67,6.85-10.19,14.53-13.43,22.83-4.05,10.35-6.1,21.68-6.1,33.68h3.7c0-11.49,1.95-22.34,5.8-32.23,3.08-7.91,7.38-15.24,12.77-21.79,4.81-5.84,9.62-9.96,12.82-12.39,2.22-1.69,3.99-2.82,4.97-3.42.99.6,2.75,1.73,4.97,3.42,3.19,2.43,8,6.55,12.82,12.39,5.39,6.55,9.69,13.88,12.77,21.79,3.85,9.89,5.8,20.74,5.8,32.23h3.7c0-12-2.05-23.33-6.1-33.68-3.24-8.29-7.76-15.97-13.43-22.83-5.05-6.1-10.1-10.4-13.44-12.94-3.66-2.77-6.11-4.09-6.22-4.15-.27-.15-.57-.22-.87-.22s-.6.07-.87.22"/>
        <g class="cls-2">
          <rect class="cls-4" x="27.84" width="80.12" height="73.82"/>
        </g>
      </g>
    </g>
  </g>
</svg>