<?xml version="1.0" encoding="UTF-8"?>
<svg id="Layer_2" data-name="Layer 2" xmlns="http://www.w3.org/2000/svg" xmlns:xlink="http://www.w3.org/1999/xlink" viewBox="0 0 135.81 106.95">
  <defs>
    <style>
      .cls-1 {
        fill: #1D1E19;
      }

      .cls-2 {
        clip-path: url(#clippath);
      }

      .cls-3 {
        fill: #EDC257;
      }
    </style>
    <clipPath id="clippath">
      <path class="cls-3" d="m54.42,61.33c-2.26,1.62-4.08,3.44-5.39,5.41-1.53,2.29-2.3,4.67-2.3,7.08h3.7c0-7.28,10.89-13.66,17.48-13.66s17.48,6.39,17.48,13.66h3.7c0-2.41-.77-4.79-2.3-7.08-1.32-1.97-3.13-3.79-5.39-5.41-4.2-3.01-9.37-4.88-13.48-4.88s-9.28,1.87-13.48,4.88m6.6-14.22c-2.84,1.36-5.64,3.26-8.11,5.48-2.94,2.66-5.29,5.66-6.97,8.93-1.98,3.86-2.99,7.99-2.99,12.29h3.7c0-3.7.87-7.27,2.58-10.6,1.48-2.87,3.55-5.52,6.16-7.88,4.95-4.47,10.3-6.48,12.51-6.48s7.56,2.01,12.51,6.48c2.61,2.36,4.68,5.01,6.16,7.88,1.71,3.33,2.58,6.89,2.58,10.6h3.7c0-4.3-1.01-8.43-2.99-12.29-1.68-3.27-4.03-6.28-6.98-8.93-2.46-2.22-5.27-4.12-8.11-5.48-2.63-1.26-5.07-1.95-6.88-1.95s-4.25.69-6.88,1.95m-.09-10.67c-2.3,1.32-5.81,3.66-9.44,7.36-5.62,5.74-12.32,15.6-12.32,30.01h3.7c0-13.16,6.13-22.18,11.26-27.43,3.33-3.4,6.53-5.54,8.63-6.74,2.68-1.53,4.54-2.08,5.14-2.08s2.46.55,5.14,2.08c2.1,1.2,5.3,3.34,8.63,6.74,5.14,5.25,11.26,14.26,11.26,27.43h3.7c0-14.41-6.7-24.27-12.32-30.01-3.62-3.7-7.13-6.05-9.44-7.36-2.86-1.63-5.4-2.57-6.97-2.57s-4.11.94-6.97,2.57m-.06-10.68c-2.64,1.7-6.65,4.69-10.77,9.23-4.3,4.74-7.73,10.09-10.18,15.88-3,7.09-4.53,14.81-4.53,22.95h3.7c0-7.52,1.38-14.65,4.1-21.19,2.23-5.37,5.36-10.33,9.29-14.75,3.78-4.26,7.5-7.09,9.95-8.71,2.87-1.91,4.88-2.74,5.47-2.87.6.13,2.6.96,5.47,2.87,2.45,1.62,6.16,4.46,9.95,8.71,3.93,4.42,7.05,9.38,9.29,14.75,2.72,6.54,4.1,13.67,4.1,21.19h3.7c0-8.14-1.52-15.86-4.53-22.95-2.46-5.8-5.88-11.14-10.18-15.88-4.12-4.54-8.13-7.53-10.77-9.23-1.15-.74-5.07-3.18-7.03-3.18s-5.87,2.43-7.03,3.18m4.24-13.4c-.9.49-2.38,1.36-4.28,2.7-2.99,2.11-7.51,5.75-12.1,11.09-4.99,5.8-8.96,12.31-11.81,19.36-3.52,8.71-5.31,18.24-5.31,28.31h3.7c0-9.36,1.62-18.22,4.8-26.33,2.59-6.59,6.21-12.7,10.77-18.16,7.49-8.98,15.13-13.37,17.01-14.24,1.88.86,9.52,5.26,17.01,14.24,4.56,5.46,8.18,11.57,10.77,18.16,3.19,8.11,4.8,16.97,4.8,26.33h3.7c0-10.07-1.79-19.59-5.31-28.31-2.85-7.05-6.82-13.56-11.81-19.36-4.59-5.34-9.12-8.98-12.1-11.09-1.9-1.35-3.38-2.21-4.28-2.7-1.96-1.07-2.48-1.07-2.78-1.07s-.82,0-2.78,1.07m1.91-12.14c-.1.05-2.56,1.37-6.22,4.15-3.35,2.54-8.39,6.84-13.44,12.94-5.67,6.85-10.19,14.53-13.43,22.83-4.05,10.35-6.1,21.68-6.1,33.68h3.7c0-11.49,1.95-22.34,5.8-32.23,3.08-7.91,7.38-15.24,12.77-21.79,4.81-5.84,9.63-9.96,12.82-12.39,2.22-1.69,3.99-2.82,4.97-3.42.99.6,2.75,1.73,4.97,3.42,3.19,2.43,8.01,6.55,12.82,12.39,5.4,6.55,9.69,13.88,12.77,21.79,3.85,9.89,5.8,20.74,5.8,32.23h3.7c0-12-2.05-23.33-6.1-33.68-3.24-8.29-7.76-15.97-13.43-22.83-5.05-6.1-10.1-10.4-13.44-12.94-3.66-2.77-6.12-4.09-6.22-4.15-.27-.15-.57-.22-.87-.22s-.6.07-.87.22"/>
    </clipPath>
  </defs>
  <g id="Calque_1" data-name="Calque 1">
    <g>
      <path class="cls-1" d="m0,106.95l8.04-23.27h6.34l8.02,23.27h-5.27l-1.73-5.31H7l-1.73,5.31H0Zm11.12-17.96l-2.86,8.81h5.91l-2.86-8.81h-.18Z"/>
      <polygon class="cls-1" points="28.82 106.95 24.04 106.95 24.04 83.68 30.11 83.68 36.52 99.31 36.8 99.31 43.21 83.68 49.27 83.68 49.27 106.95 44.5 106.95 44.5 91.8 44.31 91.8 38.28 106.84 35.03 106.84 29.01 91.74 28.82 91.74 28.82 106.95"/>
      <polygon class="cls-1" points="56.94 106.95 52.17 106.95 52.17 83.68 58.24 83.68 64.65 99.31 64.92 99.31 71.33 83.68 77.4 83.68 77.4 106.95 72.62 106.95 72.62 91.8 72.43 91.8 66.41 106.84 63.16 106.84 57.13 91.74 56.94 91.74 56.94 106.95"/>
      <path class="cls-1" d="m79.03,106.95l8.04-23.27h6.34l8.02,23.27h-5.27l-1.73-5.31h-8.4l-1.73,5.31h-5.27Zm11.12-17.96l-2.86,8.81h5.91l-2.86-8.81h-.18Z"/>
      <polygon class="cls-1" points="103.07 106.95 103.07 82.26 107.99 85.1 107.99 102.89 117.97 102.89 117.97 106.95 103.07 106.95"/>
      <polygon class="cls-1" points="120.08 83.68 135.77 83.68 135.77 87.73 125 87.73 125 93.28 134.96 93.28 132.62 97.34 125 97.34 125 102.89 135.81 102.89 135.81 106.95 120.08 106.95 120.08 83.68"/>
      <g>
        <path class="cls-3" d="m54.42,61.33c-2.26,1.62-4.08,3.44-5.39,5.41-1.53,2.29-2.3,4.67-2.3,7.08h3.7c0-7.28,10.89-13.66,17.48-13.66s17.48,6.39,17.48,13.66h3.7c0-2.41-.77-4.79-2.3-7.08-1.32-1.97-3.13-3.79-5.39-5.41-4.2-3.01-9.37-4.88-13.48-4.88s-9.28,1.87-13.48,4.88m6.6-14.22c-2.84,1.36-5.64,3.26-8.11,5.48-2.94,2.66-5.29,5.66-6.97,8.93-1.98,3.86-2.99,7.99-2.99,12.29h3.7c0-3.7.87-7.27,2.58-10.6,1.48-2.87,3.55-5.52,6.16-7.88,4.95-4.47,10.3-6.48,12.51-6.48s7.56,2.01,12.51,6.48c2.61,2.36,4.68,5.01,6.16,7.88,1.71,3.33,2.58,6.89,2.58,10.6h3.7c0-4.3-1.01-8.43-2.99-12.29-1.68-3.27-4.03-6.28-6.98-8.93-2.46-2.22-5.27-4.12-8.11-5.48-2.63-1.26-5.07-1.95-6.88-1.95s-4.25.69-6.88,1.95m-.09-10.67c-2.3,1.32-5.81,3.66-9.44,7.36-5.62,5.74-12.32,15.6-12.32,30.01h3.7c0-13.16,6.13-22.18,11.26-27.43,3.33-3.4,6.53-5.54,8.63-6.74,2.68-1.53,4.54-2.08,5.14-2.08s2.46.55,5.14,2.08c2.1,1.2,5.3,3.34,8.63,6.74,5.14,5.25,11.26,14.26,11.26,27.43h3.7c0-14.41-6.7-24.27-12.32-30.01-3.62-3.7-7.13-6.05-9.44-7.36-2.86-1.63-5.4-2.57-6.97-2.57s-4.11.94-6.97,2.57m-.06-10.68c-2.64,1.7-6.65,4.69-10.77,9.23-4.3,4.74-7.73,10.09-10.18,15.88-3,7.09-4.53,14.81-4.53,22.95h3.7c0-7.52,1.38-14.65,4.1-21.19,2.23-5.37,5.36-10.33,9.29-14.75,3.78-4.26,7.5-7.09,9.95-8.71,2.87-1.91,4.88-2.74,5.47-2.87.6.13,2.6.96,5.47,2.87,2.45,1.62,6.16,4.46,9.95,8.71,3.93,4.42,7.05,9.38,9.29,14.75,2.72,6.54,4.1,13.67,4.1,21.19h3.7c0-8.14-1.52-15.86-4.53-22.95-2.46-5.8-5.88-11.14-10.18-15.88-4.12-4.54-8.13-7.53-10.77-9.23-1.15-.74-5.07-3.18-7.03-3.18s-5.87,2.43-7.03,3.18m4.24-13.4c-.9.49-2.38,1.36-4.28,2.7-2.99,2.11-7.51,5.75-12.1,11.09-4.99,5.8-8.96,12.31-11.81,19.36-3.52,8.71-5.31,18.24-5.31,28.31h3.7c0-9.36,1.62-18.22,4.8-26.33,2.59-6.59,6.21-12.7,10.77-18.16,7.49-8.98,15.13-13.37,17.01-14.24,1.88.86,9.52,5.26,17.01,14.24,4.56,5.46,8.18,11.57,10.77,18.16,3.19,8.11,4.8,16.97,4.8,26.33h3.7c0-10.07-1.79-19.59-5.31-28.31-2.85-7.05-6.82-13.56-11.81-19.36-4.59-5.34-9.12-8.98-12.1-11.09-1.9-1.35-3.38-2.21-4.28-2.7-1.96-1.07-2.48-1.07-2.78-1.07s-.82,0-2.78,1.07m1.91-12.14c-.1.05-2.56,1.37-6.22,4.15-3.35,2.54-8.39,6.84-13.44,12.94-5.67,6.85-10.19,14.53-13.43,22.83-4.05,10.35-6.1,21.68-6.1,33.68h3.7c0-11.49,1.95-22.34,5.8-32.23,3.08-7.91,7.38-15.24,12.77-21.79,4.81-5.84,9.63-9.96,12.82-12.39,2.22-1.69,3.99-2.82,4.97-3.42.99.6,2.75,1.73,4.97,3.42,3.19,2.43,8.01,6.55,12.82,12.39,5.4,6.55,9.69,13.88,12.77,21.79,3.85,9.89,5.8,20.74,5.8,32.23h3.7c0-12-2.05-23.33-6.1-33.68-3.24-8.29-7.76-15.97-13.43-22.83-5.05-6.1-10.1-10.4-13.44-12.94-3.66-2.77-6.12-4.09-6.22-4.15-.27-.15-.57-.22-.87-.22s-.6.07-.87.22"/>
        <g class="cls-2">
          <rect class="cls-3" x="27.84" width="80.12" height="73.82"/>
        </g>
      </g>
    </g>
  </g>
</svg>
